<?xml version="1.0" encoding="UTF-8" standalone="no"?>
<!-- Created with Inkscape (http://www.inkscape.org/) -->

<svg
   version="1.1"
   id="svg1"
   width="1566.2413"
   height="2400"
   viewBox="0 0 1566.2413 2400"
   xmlns="http://www.w3.org/2000/svg"
   xmlns:svg="http://www.w3.org/2000/svg">
  <defs
     id="defs1" />
  <g
     id="g14"
     style="display:inline"
     transform="matrix(1.1776251,0,0,1.1776251,-426.30029,-11.776251)">
    <g
       id="g5"
       style="display:inline;fill:#17479e;fill-opacity:1">
      <path
         style="display:inline;fill:#17479e;fill-opacity:1"
         d="m 1589.5647,1670.1249 c -2.9938,-5.7893 -1.2769,-16.8703 2.8598,-18.4578 5.6638,-2.1728 26.3708,9.5872 31.9423,-8.7547 1.3009,-4.2828 1.7514,-15.5917 -6.0702,-32.0387 -12.5539,-26.3978 -29.4431,-69.2644 -32.4715,-75.2075 C 1583.2273,1530.5685 1574,1533.639 1574,1528 c 0,-2.4868 7.1367,-2 28.32,-2 21.1832,0 26.68,-0.6099 26.68,2 0,5.4856 -16.6477,1.0578 -11.5287,14.5573 17.1828,45.3136 22.573,61.2908 22.9397,61.2908 0.3668,0 12.1236,-32.0286 21.4003,-57.3049 5.0711,-13.8171 -15.7797,-14.1003 -16.8404,-18.5432 -0.6012,-2.5183 1.4078,-2.2584 24.016,-2 19.0755,0.218 22.0131,0 22.0131,2 0,4.9941 -8.4782,-0.061 -17.38,15.3301 -4.3521,7.5248 -23.3626,54.2148 -38.0988,92.6697 -12.4442,32.4738 -18.813,40.065 -33.5212,39.9553 -3.0238,-0.023 -9.7709,-0.6779 -12.4353,-5.8302 z"
         id="path4" />
      <path
         style="display:inline;fill:#17479e;fill-opacity:1"
         d="m 571.5647,1670.1249 c -2.9938,-5.7893 -1.2769,-16.8703 2.8598,-18.4578 5.6638,-2.1728 26.3708,9.5872 31.9423,-8.7547 1.3009,-4.2828 1.7514,-15.5917 -6.0702,-32.0387 -12.5539,-26.3978 -29.4431,-69.2644 -32.4715,-75.2075 C 565.2273,1530.5685 556,1533.639 556,1528 c 0,-2.4868 7.1367,-2 28.32,-2 21.1832,0 26.68,-0.6099 26.68,2 0,5.4856 -16.6477,1.0578 -11.5287,14.5573 17.1828,45.3136 22.573,61.2908 22.9397,61.2908 0.3668,0 12.1236,-32.0286 21.4003,-57.3049 5.0711,-13.8171 -15.7797,-14.1003 -16.8404,-18.5432 -0.6012,-2.5183 1.4078,-2.2584 24.016,-2 19.0755,0.218 22.0131,0 22.0131,2 0,4.9941 -8.4782,-0.061 -17.38,15.3301 -4.3521,7.5248 -23.3626,54.2148 -38.0988,92.6697 -12.4442,32.4738 -18.813,40.065 -33.5212,39.9553 -3.0238,-0.023 -9.7709,-0.6779 -12.4353,-5.8302 z"
         id="path5" />
      <path
         style="display:inline;fill:#17479e;fill-opacity:1"
         d="m 1492,1635 c -9.3613,0 -28,-9.6477 -28,-30 0,-20.3523 11.6005,-28.296 29.8652,-32.763 15.1171,-3.6972 35.1348,-4.2274 35.1348,-4.2274 0,0 0.496,-27.0827 -1.2076,-31.0563 -2.5115,-5.8583 -6.0663,-8.9568 -13.7924,-8.9496 -7.7261,0.01 -14.4039,5.6208 -15.4866,15.9304 -0.3453,15.1722 -11.2364,19.376 -24.0441,12.6377 -5.5616,-3.6441 -3.9097,-14.2346 3.3203,-21.2864 9.4036,-9.1719 21.4861,-12.2854 41.2104,-12.2854 13.8916,0 26.1289,1.1566 33.5667,17.0911 3.9394,8.4396 1.0907,62.099 2.3568,78.3821 0.3866,4.9718 3.2912,6.5268 8.2002,6.5268 2.923,0 4.8763,-0.3178 4.8763,4 0,1.5272 -26.9346,4.6919 -29.946,4.7262 -6.8747,0.078 -7.4263,-5.7438 -9.054,-13.7262 0,0 -9.0322,15 -37,15 z m 15,-11 c 9.7491,0 16.5905,-7.3633 18.9757,-12 4.6689,-9.0766 3.0243,-38 3.0243,-38 -29.2707,1.1143 -38,10.8644 -38,26.0001 0,15.1357 6.2508,24 16,24 z"
         id="path6" />
      <path
         style="display:inline;fill:#17479e;fill-opacity:1"
         d="m 1153,1635 c -9.3613,0 -28,-9.6477 -28,-30 0,-20.3523 11.6005,-28.296 29.8652,-32.763 15.1171,-3.6972 35.1348,-4.2274 35.1348,-4.2274 0,0 0.496,-27.0827 -1.2076,-31.0563 -2.5115,-5.8583 -6.0663,-8.9568 -13.7924,-8.9496 -7.7261,0.01 -14.4039,5.6208 -15.4866,15.9304 -0.3453,15.1722 -11.2364,19.376 -24.0441,12.6377 -5.5616,-3.6441 -3.9097,-14.2346 3.3203,-21.2864 9.4036,-9.1719 21.4861,-12.2854 41.2104,-12.2854 13.8916,0 26.1289,1.1566 33.5667,17.0911 3.9394,8.4396 1.0907,62.099 2.3568,78.3821 0.3866,4.9718 3.2912,6.5268 8.2002,6.5268 2.923,0 4.8763,-0.3178 4.8763,4 0,1.5272 -26.9346,4.6919 -29.946,4.7262 -6.8747,0.078 -7.4263,-5.7438 -9.054,-13.7262 0,0 -9.0322,15 -37,15 z m 15,-11 c 9.7491,0 16.5905,-7.3633 18.9757,-12 4.6689,-9.0766 3.0243,-38 3.0243,-38 -29.2707,1.1143 -38,10.8644 -38,26.0001 0,15.1357 6.2508,24 16,24 z"
         id="path7" />
      <path
         style="display:inline;fill:#17479e;fill-opacity:1"
         d="m 708,1635 c -9.3613,0 -28,-9.6477 -28,-30 0,-20.3523 11.6005,-28.296 29.8652,-32.763 15.1171,-3.6972 35.1348,-4.2274 35.1348,-4.2274 0,0 0.496,-27.0827 -1.2076,-31.0563 -2.5115,-5.8583 -6.0663,-8.9568 -13.7924,-8.9496 -7.7261,0.01 -14.4039,5.6208 -15.4866,15.9304 -0.3453,15.1722 -11.2364,19.376 -24.0441,12.6377 -5.5616,-3.6441 -3.9097,-14.2346 3.3203,-21.2864 C 703.1932,1526.1135 715.2757,1523 735,1523 c 13.8916,0 26.1289,1.1566 33.5667,17.0911 3.9394,8.4396 1.0907,62.099 2.3568,78.3821 0.3866,4.9718 3.2912,6.5268 8.2002,6.5268 2.923,0 4.8763,-0.3178 4.8763,4 0,1.5272 -26.9346,4.6919 -29.946,4.7262 -6.8747,0.078 -7.4263,-5.7438 -9.054,-13.7262 0,0 -9.0322,15 -37,15 z m 15,-11 c 9.7491,0 16.5905,-7.3633 18.9757,-12 4.6689,-9.0766 3.0243,-38 3.0243,-38 -29.2707,1.1143 -38,10.8644 -38,26.0001 0,15.1357 6.2508,24 16,24 z"
         id="path8" />
      <path
         style="display:inline;fill:#17479e;fill-opacity:1"
         d="m 1331,1629 c 0,-2.4997 0.2029,-4 8,-4 8.4042,0 10,-3.0002 10,-15 v -108 c 0,-11.9995 -1.5972,-15 -10,-15 -7.7974,0 -8,-1.4924 -8,-4.0002 0,-2.5078 1.005,-2.9998 32,-2.9998 59.0042,0 90,1.2233 90,44.5 0,43.2767 -30.2956,44.5 -76,44.5 -0.034,0 0,41 0,41 0,12.0043 1.5991,14.9998 10,14.9998 7.999,0 8,0.7966 8,4.0002 0,1.6964 -0.9968,3 -32,3 -31.0032,0 -32,-0.5003 -32,-3 z m 93,-104.5 c 0,-43.8726 -47,-37.5 -47,-37.5 v 75 c 0,0 47,6.3726 47,-37.5 z"
         id="path9" />
      <path
         style="display:inline;fill:#17479e;fill-opacity:1"
         d="m 1239,1629 c 0,-6.6019 12.3137,-0.3317 15,-11 1.4651,-5.8183 1.4136,-74.9707 -0.049,-80.2384 -1.1529,-4.1512 -3.3341,-5.7618 -7.8032,-5.7618 -4.8197,0 -7.1478,-1.7344 -7.1478,-3.9998 0,-4.7368 32.9443,-5 37,-5 2.7687,0 3.1698,0.3323 4,9.4398 0.4321,4.7404 -0.2847,8.8518 0,9.1364 0.7826,0.7826 7.3565,-18.5762 30,-18.5762 9.9472,0 16.6134,5.8505 16.6134,17 0,5.3223 -8.3605,11 -14.6134,11 -6.6861,0 -9.1184,-2.5145 -12.1263,-9.7716 -2.5029,-6.0389 -3.8268,-6.7357 -7.7917,-2.7708 -6.5866,6.5866 -12.082,16.8555 -12.082,19.5424 0,9.1808 -1.5479,54.2241 -2e-4,60 2.8508,10.6393 15,4.3975 15,11 0,2.7991 -1.005,3 -28,3 -26.995,0 -28,-0.2027 -28,-3 z"
         id="path10" />
      <path
         style="display:inline;fill:#17479e;fill-opacity:1"
         d="M 956.50002,1632 C 931.49787,1632 928,1631.7974 928,1629 c 0,-6.9736 11.63643,1.553 15,-11 2.06945,-7.7233 0,-58 0,-58 -3.8329,-38.6939 -14.00004,-25.7303 -14.00004,-30.9756 -0.1127,-5.2683 27.86885,-5.2431 33.71348,-5.4635 5.84463,-0.2204 5.78656,8.5148 5.78656,8.5148 V 1542 c 0,0 12.4852,-20 35.5,-20 23.0148,0 28.5,20 28.5,20 0,0 13.4928,-20 36.5,-20 31.0697,0 30,38 30,38 0,0 -1.071,50.2715 1,58 3.3654,12.5599 15,3.9974 15,11 0,2.677 -3.4961,3 -28.5,3 -25.0039,0 -28.5,-0.202 -28.5,-3 0,-6.9982 11.6369,1.5513 15,-11 2.0698,-7.7247 0,-58 0,-58 0,0 1.0107,-27 -17,-27 -18.0107,0 -21,27 -21,27 0,0 -2.0689,50.2787 0,58 3.3647,12.5574 15,3.9985 15,11 0,2.7984 -3.4995,3 -28.5,3 -25.00049,0 -28.5,-0.1811 -28.5,-3 0,-6.9986 11.6355,1.5565 15,-11 2.0679,-7.7176 0,-58 0,-58 0,0 1.0229,-27 -17,-27 -18.02291,0 -21,27 -21,27 0,0 -2.07084,50.2715 0,58 3.36538,12.5598 15,4.0002 15,11 0,2.8045 -3.49787,3 -28.50002,3 z"
         id="path11" />
      <path
         style="display:inline;fill:#17479e;fill-opacity:1"
         d="M 823.50002,1632 C 798.49787,1632 795,1631.7974 795,1629 c 0,-6.9736 11.63643,1.553 15,-11 2.06945,-7.7233 0,-58 0,-58 -3.8329,-38.6939 -14.00004,-25.7303 -14.00004,-30.9756 -0.1127,-5.2683 27.86885,-5.2431 33.71348,-5.4635 5.84463,-0.2204 5.78656,8.5148 5.78656,8.5148 V 1542 c 0,0 10.1102,-20 35.5,-20 35.9926,0 32,38 32,38 0,0 -1.0689,50.2787 1,58 3.3647,12.5574 15,3.9985 15,11 0,2.7984 -3.4995,3 -28.5,3 -25.00049,0 -28.5,-0.1811 -28.5,-3 0,-6.9986 11.6355,1.5565 15,-11 2.0679,-7.7176 0,-58 0,-58 0,0 0.0229,-27 -18,-27 -18.02291,0 -22,27 -22,27 0,0 -2.07084,50.2715 0,58 3.36538,12.5598 15,4.0002 15,11 0,2.8045 -3.49787,3 -28.50002,3 z"
         id="path12" />
      <path
         style="display:inline;fill:#17479e;fill-opacity:1"
         d="m 487,1629 c 0,-6.0024 13.01989,-3.5704 15,-7 5.00058,-8.6613 2.27701,-122 2.27701,-122 L 454,1627 H 442.65116 L 392,1500 c 0,0 -1.39244,119.4833 8,122 9.39244,2.5167 15,1.0009 15,7 0,2.795 -3.49654,3 -26.5,3 -23.00346,0 -26.5,-0.2009 -26.5,-3 0,-6.0032 5.63561,-4.4908 15,-7 9.36439,-2.5092 6,-122 6,-122 0,0 0.25256,-11.0627 -10.11586,-13.1026 -6.42939,-1.2649 -9.0046,-3.176 -6.99314,-5.1898 15.85997,-2.2136 46.44072,-2.4258 48.55078,-1.2076 C 417.87082,1482.4798 458,1591 458,1591 c 0,0 40.61404,-104.5138 44.8206,-109.3017 2.93471,-3.3402 46.1794,-2.8841 46.1794,-0.084 0,6.0419 -17.01383,2.6105 -17.01383,10.8857 0,76.2567 -3.01153,120.8579 2.01383,129.5 2.00057,3.4404 15,0.9901 15,7 0,2.8004 -5.98418,3 -31,3 -25.01582,0 -31,-0.2017 -31,-3 z"
         id="path3" />
      <path
         style="display:inline;fill:#17479e;fill-opacity:1"
         d="m 1337,2048 -21,-26 c 0,0 -21.9892,8 -53,8 -91.0163,0 -150,-62.9933 -150,-158 0,-95.0067 58.0141,-158 150,-158 91.9859,0 150,62.9901 150,158 0,85.0145 -47,120 -47,120 l 47,56 z m -70,-91 -35,-46 h 67 l 15,19 c 0,0 12.5,-20.0028 12.5,-58 0,-75.9975 -41.5001,-85 -63.5,-85 -21.9999,0 -63.5,8.989 -63.5,85 0,76.011 40.4918,85 67.5,85 z m -632,68 v -181 l -72,181 h -48 l -72,-181 v 181 h -81 v -307 h 104 l 73,175 73,-175 h 104 v 307 z m 376.0016,0 v -181 l -72,181 h -48 l -72,-181 v 181 h -81 v -307 h 104 l 73,175 73,-175 h 104 v 307 H 1011 Z m 422.9984,1 -4.5,-308 h 131 c 44.2047,0 68.5,14 68.5,14 14.4746,3.8785 52.5,31.1145 52.5,90 0,58.8855 -38.0109,85.1176 -52.5,89 l 63,115 h -92 l -53,-101 h -29 v 101 z m 126,-167 c 7.1148,0 34.125,-5.8564 33.5,-37 -0.625,-31.1436 -26.4006,-37 -33.5,-37 h -42 v 74 z"
         id="path1" />
    </g>
    <g
       id="g13"
       style="display:inline">
      <circle
         style="display:inline;fill:#fdb913;fill-opacity:1;stroke-width:1.45354"
         id="path20"
         cx="1026"
         cy="809.08002"
         r="663.5" />
      <g
         id="g15"
         style="display:inline;fill:#17479e;fill-opacity:1">
        <path
           style="display:inline;fill:#17479e;fill-opacity:1"
           d="M 871,1356.0001 879,1324 h 294 l 8,32 -310,-10e-5 z M 889,1283 h 274 l 8,32 H 881 Z m 2,-9 8,-33 h 254 l 8,33 z m 10,-42 8,-31 h 234 l 8,31 z m 10,-40 8,-33 h 214 l 8,33 z"
           id="path2" />
        <path
           style="display:inline;fill:#17479e;fill-opacity:1"
           d="m 1196,1356 c 0,0 10.0416,-19.4675 12,-26 1.9584,-6.5325 4.4222,-21.6208 4,-38 -0.4222,-16.3792 -6.5473,-37.033 -11,-57 -4.4527,-19.967 4,-35 4,-35 h 38 c 0,0 -4.6416,19.4491 -3,35 1.6416,15.5509 9.8719,47.5595 11,57 1.1281,9.4405 2.5292,22.0342 -3,38 -5.5292,15.9658 -10,26 -10,26 z m 47,0 c 0,0 3.9244,-9.8683 10,-26 6.0756,-16.1317 3.3536,-30.1494 3,-38 -0.3536,-7.8506 -8.5993,-40.468 -11,-57 -2.4007,-16.532 3,-34.9998 3,-34.9998 l 13,-2e-4 c 0,0 -4.5,13.7902 -4.5,23 0,9.2098 1.5,12 1.5,12 h 277.04 l -9.87,11.5 -10.35,11.5 H 1264 c 0,0 2.2877,5.4981 6,34 3.7123,28.5019 -1,38 -1,38 h 168.05 l -17.07,13 -18.32,13 z m -50.5492,-7 c 0,0 -19.4968,-87.4587 -20.4508,-91 -3.292,-12.2194 -2.9071,-17.6481 -1.9143,-23 4.6984,-25.3289 15.9143,-35 15.9143,-35 h 14 c 0,0 -9.3664,9.5604 -4,35 5.3664,25.4396 10.9883,47.0881 11,57 0.012,9.9119 -0.1668,24.4648 -4,38 -3.8332,13.5352 -10.5492,19 -10.5492,19 z M 1153,1182 l -6,-23 h 443.1 l -7.31,11.5 -7.66,11.5 z"
           id="path15" />
        <path
           style="display:inline;fill:#17479e;fill-opacity:1"
           d="m 856,1356 c 0,0 -10.0416,-19.4675 -12,-26 -1.9584,-6.5325 -4.4222,-21.6208 -4,-38 0.4222,-16.3792 6.5473,-37.033 11,-57 4.4527,-19.967 -4,-35 -4,-35 h -38 c 0,0 4.6416,19.4491 3,35 -1.6416,15.5509 -9.8719,47.5595 -11,57 -1.1281,9.4405 -2.5292,22.0342 3,38 5.5292,15.9658 10,26 10,26 z m -47,0 c 0,0 -3.9244,-9.8683 -10,-26 -6.0756,-16.1317 -3.3536,-30.1494 -3,-38 0.3536,-7.8506 8.5993,-40.468 11,-57 2.4007,-16.532 -3,-34.9998 -3,-34.9998 L 791,1200 c 0,0 4.5,13.7902 4.5,23 0,9.2098 -1.5,12 -1.5,12 H 516.96 l 9.87,11.5 10.35,11.5 H 788 c 0,0 -2.2877,5.4981 -6,34 -3.7123,28.5019 1,38 1,38 H 614.95 l 17.07,13 18.32,13 z m 50.5492,-7 c 0,0 19.4968,-87.4587 20.4508,-91 3.292,-12.2194 2.9071,-17.6481 1.9143,-23 C 877.2159,1209.6711 866,1200 866,1200 h -14 c 0,0 9.3664,9.5604 4,35 -5.3664,25.4396 -10.9883,47.0881 -11,57 -0.012,9.9119 0.1668,24.4648 4,38 3.8332,13.5352 10.5492,19 10.5492,19 z M 899,1182 l 6,-23 H 461.9 l 7.31,11.5 7.66,11.5 z"
           id="path27" />
      </g>
      <g
         id="g20"
         style="fill:#17479e;fill-opacity:1">
        <path
           style="display:inline;fill:#17479e;fill-opacity:1"
           d="M 1128,1152 V 951 l 16,7 v 194 z m 159,0 v -128 l 16,7 v 121 z m -138,-55 V 961 l 133,60 v 76 c 0,0 -7.3417,-0.6149 -12,-18 -4.6583,-17.3851 -11.9294,-44.9584 -54.5,-45 -42.5706,-0.042 -49.8401,27.609 -54.5,45 -4.6599,17.391 -12,18 -12,18 z m -21,-152 v -23 l 250,108 59,-21 v -16 l 10,18 -37,31.3514 -19,22.6486 z m 73,3 124,21 -23,22 z m 112,43 66,-66 v 66 z m -176,-71 h 58 v 26 z m -9,-6 v -52 l 55,52 z m 61,0 -150,-145 -4,-32 145,137 58,-13 v -27 l 10,27 -34,39 -3,14 z m 29,0 3,-14 h 84 v 14 z m 8,-19.99974 23,-25.00026 56,-38 v 63 l -79,-2.5e-4 z M 1182,866 l -23,-21 65,13 z m -62,-58 h 37 v 34 z"
           id="path13" />
        <path
           style="display:inline;fill:#17479e;fill-opacity:1"
           d="m 931,971 v -22 l 95,60 95,-60 v 22 l -95,60 z m 95,32 -85,-54 h 170 z m -95,-60 v -82 h 190 v 82 z m 20,-87 75,-20 75,20 z m 66,-55.19558 V 778 l 9,-80 9,80 v 22.07853 L 1026,809 m 0,8 12.7465,-13.88377 L 1116,855 1026,831.01873 936,855 1013.282,804.18465 M 944,843 l 68,-65 v 18 z m 96,-47 v -18 l 68,65 z"
           id="path18" />
        <path
           style="display:inline;fill:#17479e;fill-opacity:1"
           d="M 924,1152 V 951 l -16,7 v 194 z m -159,0 v -128 l -16,7 v 121 z m 138,-55 V 961 l -133,60 v 76 c 0,0 7.3417,-0.6149 12,-18 4.6583,-17.3851 11.9294,-44.9584 54.5,-45 42.5706,-0.042 49.8401,27.609 54.5,45 4.6599,17.391 12,18 12,18 z m 21,-152 v -23 l -250,108 -59,-21 v -16 l -10,18 37,31.3514 19,22.6486 z m -73,3 -124,21 23,22 z m -112,43 -66,-66 v 66 z m 176,-71 h -58 v 26 z m 9,-6 v -52 l -55,52 z m -61,0 150,-145 4,-32 -145,137 -58,-13 v -27 l -10,27 34,39 3,14 z m -29,0 -3,-14 h -84 v 14 z M 826,894.00026 803,869 747,831 v 63 l 79,-2.5e-4 z M 870,866 l 23,-21 -65,13 z m 62,-58 h -37 v 34 z"
           id="path21" />
        <path
           style="display:inline;fill:#17479e;fill-opacity:1"
           d="m 849,787 h 107 l -18,16 h -89 z m 247,0 h 107 v 16 l -89,2e-5 z M 849.00001,783 849,738 914,783 H 848.99999 Z M 926,783 899,764 928,747 h 69 l -38,36 z m 167,0 -38,-36 h 69 l 29,17 -27,19 z m 45,0 65,-45 v 45 z M 935,743 v -32 h 83 l -2,17 -16,15 z m 117,0 -16,-15 -2,-17 h 83 v 32 z M 897,707 v -17 h 124 l -2,17 z m 134,-17 124,-6e-5 V 707 H 1033 Z M 897,686.00002 V 641 l 56,45 -56,-10e-6 z m 133,-2e-5 -4,-26 -4,26 h -32 l -13,-16 9,-10 2,6 h 14 l 24,-28 24,28 h 14 l 3,-6 8,10 -13,16 z m 40,0 13,-16 -16,-18 v -7 h 21 l 29,20 -26,21 z m 29,0 56,-45 v 45 z m -138,0 -26,-21 29,-20 h 22 v 7 l -17,18 13,16 z m 31,-26 v -15 h 21 l -13,15 z m 60,0 -13,-15 h 22 v 15 z m -16,-19 -10,-11 -10,11 h -52 v -23 h 124 v 23 z"
           id="path16" />
        <path
           style="display:inline;fill:#17479e;fill-opacity:1"
           d="m 937,598 h 178 v 16 H 937 Z m 0,-6 v -28 l 35.60493,28 z m 43,0 -23,-19 23,-16 h 7 l -5,16 13,19 z m 20,8e-5 L 987,573 l 4,-13 3,9 h 12 l 20,-19 20,19 h 12 l 3,-9 4,13 -13,19 -52,-8e-5 z m 57,-9e-5 13,-18.99999 -5,-16 h 7 l 23,16 -23,19 -15,10e-6 z M 1079.9938,592 1115,564 v 28 z M 997,564 l -2,-7 h 15 l -7,7 z m 52,0 -7,-7 h 15 l -2,7 z m -67,-34 h 88 v 21 h -34 l -10,-8 -10,8 h -34 z"
           id="path23" />
        <path
           style="display:inline;fill:#17479e;fill-opacity:1;stroke-width:0.740192"
           d="m 962,513.30952 h 128 V 525.5 H 962 Z m 0,-4.57144 v -21.33332 l 25.60354,21.33332 z m 30.92135,0 -16.53934,-14.47616 16.53934,-12.19048 h 5.03367 l -3.59544,12.19048 9.34842,14.47616 z m 14.38205,8e-5 -9.34838,-14.47624 2.87628,-9.90477 2.1576,6.85713 h 8.6292 l 14.3819,-14.4762 14.3819,14.4762 h 8.6292 l 2.1576,-6.85713 2.8763,9.90477 -9.3484,14.47616 -37.3932,-4e-5 z m 40.9886,-8e-5 9.3484,-14.47616 -3.5954,-12.19048 h 5.0338 l 16.5393,12.19048 -16.5393,14.47616 -10.7868,10e-6 z m 16.535,0 25.173,-21.33332 v 21.33332 z m -59.681,-21.33332 -1.438,-5.33332 h 10.7864 l -5.0337,5.33332 z m 37.3933,0 -5.0337,-5.33332 h 10.7864 l -1.438,5.33332 z M 994.35958,461.5 h 63.28082 v 16 H 1033.191 L 1026,471.40476 1018.809,477.5 h -24.44942 z"
           id="path24" />
        <path
           style="display:inline;fill:#17479e;fill-opacity:1;stroke-width:0.584027"
           d="m 976,446.28572 h 100 V 456 H 976 Z m 0,-3.64287 v -17 l 20.00274,17 z m 24.1573,0 -12.92135,-11.5357 12.92135,-9.71427 h 3.9325 l -2.8089,9.71427 7.3034,11.5357 z m 11.236,6e-5 -7.3035,-11.53576 2.2471,-7.89285 1.6856,5.46426 h 6.7416 L 1026,417.14285 l 11.2359,11.53571 h 6.7416 l 1.6856,-5.46426 2.2471,7.89285 -7.3035,11.5357 -29.2134,-3e-5 z m 32.0224,-6e-5 7.3034,-11.5357 -2.8089,-9.71427 h 3.9326 l 12.9213,9.71427 -12.9213,11.5357 z m 12.9179,0 19.6664,-17 v 17 z m -46.6257,-17 -1.1236,-4.24997 h 8.4269 l -3.9325,4.24997 z m 29.2134,0 -3.9325,-4.24997 h 8.4269 l -1.1236,4.24997 z M 1001.2809,405 h 49.4382 v 12.75 h -19.101 L 1026,412.89285 1020.3819,417.75 h -19.101 z"
           id="path25" />
        <path
           style="display:inline;fill:#17479e;fill-opacity:1;stroke-width:0.49516"
           d="m 987,392 h 78 v 7 h -78 z m 0,-5.30953 v -15.66666 l 15.6021,15.66666 z m 18.8427,0 -10.07866,-10.63094 10.07866,-8.95238 h 3.0673 l -2.1909,8.95238 5.6968,10.63094 z m 8.7641,6e-5 -5.6968,-10.631 1.7529,-7.27382 1.3147,5.03572 h 5.2584 l 8.764,-10.63097 8.764,10.63097 h 5.2584 l 1.3148,-5.03572 1.7528,7.27382 -5.6968,10.63094 -22.7864,-4e-5 z m 24.9773,-6e-5 5.6968,-10.63094 -2.1909,-8.95238 h 3.0674 l 10.0786,8.95238 -10.0786,10.63094 -6.5733,10e-6 z m 10.076,0 L 1065,371.02381 v 15.66666 z m -36.3681,-15.66666 -0.8761,-3.91666 h 6.5729 l -3.0674,3.91666 z m 22.7866,0 -3.0673,-3.91666 h 6.5728 l -0.8761,3.91666 z M 1006,336 h 4 l 16,8 16,-8 h 4 v 26 h -9 l -11,-10 -11,10 h -9 z"
           id="path26" />
        <path
           style="display:inline;fill:#17479e;fill-opacity:1"
           d="m 1026,339 -16,-8 -12,4 9,-19 h 38 l 9,19 -12,-4 z m -25,-28 v -8 l 50,10e-6 V 311 Z m 0,-13 v -10 h 50 v 10 z m 8,-14.00002 -5,-5.99998 7,-13 h 30 l 7,13 -5,6 -34,2e-5 z M 1012,248 h 28 v 12 h -28 z m -5,-5 -4,-11 h 46 l -4,11 z m -4,-16 7,-10 h 32 l 7,10 z m 23,-16 c -5.8584,0 -7.9959,-1.26082 -9,-3 -1.0041,-1.73918 -1.2467,-5.04485 0,-30 0.4999,-10.00645 9,-168 9,-168 0,0 8.4686,158.02766 9,168 1.3295,24.95179 1.0407,28.19745 0,30 -1.0407,1.80255 -3.1416,3 -9,3 z"
           id="path22" />
      </g>
    </g>
  </g>
</svg>
